<?xml version="1.0" encoding="UTF-8"?><svg id="Layer_2" xmlns="http://www.w3.org/2000/svg" width="103.75" height="86.78" viewBox="0 0 103.75 86.78"><defs><style>.cls-1{fill:#488dbb;}.cls-1,.cls-2{stroke-width:0px;}.cls-2{fill:#fff;}</style></defs><g id="Layer_1-2"><path class="cls-2" d="M39.75,44.94c.06.12.06.23.12.35.06.12.12.23.12.35,1.75,5.17,3.5,10.34,5.25,15.52,1.28,3.84,7.17,21.09,8.68,25.45v.12q-.06,0-.12.06c-.76-.35-1.57-.29-2.33-.46-1.4-.35-2.86-.52-4.31-.76-1.57-.29-3.21-.52-4.78-.87-1.92-.35-3.85-.7-5.83-1.1-2.45-.46-4.84-.81-7.29-1.28-3.44-.64-6.88-1.28-10.32-1.86-.35-.06-.52-.17-.64-.52C16.61,74.92,4.43,39.18.12,26.57c-.06-.17-.06-.35-.12-.46.82.17,1.69.23,2.51.41,1.69.35,3.38.58,5.07.87,3.61.64,7.23,1.28,10.9,1.92,3.09.52,6.12.99,9.21,1.51,1.28.23,2.62.46,3.9.7,1.22.23,2.51.41,3.73.64,1.46,4.18,2.86,8.43,4.31,12.61.12.06.12.12.12.17Z"/><path class="cls-1" d="M48.72,86.07v-.12c.06.06.12.06.12.12h-.12Z"/><path class="cls-2" d="M0,24.21c.41-.41.99-.46,1.52-.76,1.75-.99,3.61-1.8,5.42-2.73,1.28-.64,2.56-1.28,3.9-1.92.93-.41,1.81-.87,2.68-1.34,1.98-1.05,3.96-2.09,5.94-3.08,1.17-.58,2.33-1.22,3.56-1.8,1.52-.76,3.09-1.51,4.6-2.32,1.69-.87,3.44-1.74,5.13-2.61,1.11-.52,2.21-1.05,3.26-1.57,1.05-.52,2.1-1.1,3.15-1.69,1.52-.76,3.03-1.51,4.55-2.27,1.34-.7,2.68-1.34,4.08-2.03.23-.12.41-.12.58-.06,4.2.7,8.33,1.34,12.53,2.03,2.27.35,4.55.76,6.82,1.1,3.09.52,6.18.99,9.27,1.51,2.1.35,4.2.7,6.29,1.05-.58.64-1.34.81-2.04,1.22-1.69.87-3.44,1.74-5.13,2.61-.99.52-2.04.93-3.09,1.51-.76.41-1.57.81-2.33,1.22-1.63.87-3.26,1.63-4.9,2.5-.87.46-1.86.76-2.74,1.28-1.11.58-2.21,1.16-3.26,1.74-.93.52-1.92.99-2.86,1.45-1.63.81-3.26,1.63-4.9,2.44-2.21,1.1-4.37,2.21-6.59,3.31-2.91,1.45-5.83,2.96-8.74,4.42-.41.23-.87.41-1.28.7-1.22-.23-2.51-.41-3.73-.64-1.28-.23-2.62-.52-3.9-.7-3.09-.52-6.12-.99-9.21-1.51-3.61-.64-7.23-1.28-10.9-1.92-1.69-.29-3.38-.52-5.07-.87-.93-.06-1.75-.12-2.62-.29Z"/><path class="cls-2" d="M103.68,61.14c-.41-1.16-.76-2.27-1.17-3.43-2.62-7.79-5.24-15.52-7.87-23.3-.06-.17-.12-.41-.17-.58-.12-.23-.17-.52-.29-.76-2.86-8.37-5.65-16.68-8.51-25.05-.06-.23-.17-.46-.23-.7-.12-.06-.17-.06-.29-.06-.52.64-1.34.87-2.04,1.22-1.69.93-3.44,1.74-5.13,2.61-1.05.52-2.1.99-3.09,1.51-.76.41-1.57.81-2.33,1.22-1.57.87-3.26,1.63-4.9,2.5-.87.52-1.86.81-2.74,1.28-1.05.58-2.16,1.16-3.26,1.74-.93.46-1.92.99-2.86,1.45-1.63.81-3.26,1.63-4.9,2.44-2.21,1.1-4.37,2.21-6.59,3.31-2.91,1.45-5.83,2.96-8.74,4.42-.47.17-.93.35-1.28.7,1.46,4.18,2.86,8.43,4.31,12.61h.12c0,.06-.06.06-.06.12.06.12.06.23.12.35.29,0,.35.12.12.35,1.75,5.17,3.5,10.34,5.25,15.52,1.28,3.84,2.62,7.67,3.9,11.51l.35.76c1.46,4.36,2.97,8.72,4.43,13.07,0,.06.06.06.12.12q.06-.06.12-.06c1.11-.64,2.21-1.34,3.38-1.8,1.28-.52,2.45-1.22,3.67-1.86,1.81-.93,3.56-1.8,5.36-2.73,2.21-1.1,4.37-2.27,6.59-3.37,1.75-.87,3.56-1.74,5.3-2.61,1.57-.81,3.21-1.63,4.78-2.44,1.22-.58,2.45-1.22,3.67-1.86,1.69-.87,3.32-1.74,5.01-2.56,1.87-.93,3.79-1.8,5.6-2.79,1.34-.7,2.74-1.28,4.02-2.09.35-.23.35-.41.23-.76ZM60.9,53.53c-1.4.7-2.8,1.39-4.25,2.15q-.41.17-.52-.23c-.7-1.74-1.28-3.43-1.86-5.17-.58-1.69-1.17-3.43-1.75-5.11-.12-.29-.06-.41.23-.52,1.46-.76,2.97-1.45,4.43-2.21.23-.12.29-.06.41.12.06.17.12.35.17.52,1.11,3.25,2.21,6.57,3.38,9.82.12.35.06.46-.23.64ZM82.23,46.67c-1.4,4.42-2.86,8.83-4.25,13.31-.06.29-.17.29-.41.17-2.74-1.45-5.48-2.96-8.28-4.42-.82-.41-1.57-.87-2.39-1.28-.23-.12-.23-.23-.12-.46.7-.93,1.4-1.92,2.1-2.91.17-.23.29-.23.52-.12,1.98,1.1,3.96,2.15,6,3.2.17.06.29.17.47.35.12-.23.12-.29.17-.41.82-2.56,1.63-5.11,2.45-7.67.12-.29.23-.41.52-.35.99.12,1.98.17,2.97.23.35,0,.35.06.23.35ZM87.83,39.87c-1.46.7-2.86,1.45-4.31,2.15-.35.17-.41.17-.52-.23-1.17-3.43-2.33-6.86-3.5-10.23-.12-.29-.06-.46.23-.58,1.46-.7,2.86-1.45,4.31-2.15.29-.12.35-.12.47.17.64,1.8,1.22,3.49,1.81,5.23.58,1.69,1.17,3.43,1.75,5.11.12.29,0,.41-.23.52Z"/></g></svg>